<svg width="95" height="95" viewBox="0 0 95 95" fill="none" xmlns="http://www.w3.org/2000/svg">
<g clip-path="url(#clip0)">
<path d="M88.8899 80.6849H59.4004C57.6741 80.6849 56.0203 81.4202 54.864 82.7018C54.8551 82.7116 54.8464 82.7216 54.8378 82.7316L51.497 86.6535V48.2986C52.6124 48.1212 53.5357 47.3302 53.8713 46.2186L57.3236 34.7845C58.7935 34.3219 59.8632 32.9466 59.8632 31.3259C59.8632 29.8209 58.9408 28.5278 57.6323 27.9803V22.4951H63.7016C65.2756 22.4951 66.556 21.2147 66.556 19.6409V17.3412C69.0611 16.319 70.832 13.8579 70.832 10.9896V10.6899C70.832 9.91989 70.2078 9.29553 69.4376 9.29553C68.6674 9.29553 68.0432 9.91989 68.0432 10.6899V10.9896C68.0432 12.9328 66.6737 14.5615 64.849 14.9631C64.7815 14.9777 64.7137 14.9909 64.6458 15.0022C64.6429 15.0028 64.6399 15.0033 64.6369 15.0039C64.5653 15.0158 64.4937 15.0256 64.4217 15.0336C64.42 15.0338 64.4183 15.0339 64.4167 15.0341C64.348 15.0417 64.2794 15.0471 64.2107 15.0512C64.205 15.0516 64.1994 15.0521 64.1937 15.0525C64.1204 15.0566 64.0471 15.0586 63.9741 15.0586H29.9107C29.8376 15.0586 29.7647 15.0566 29.6912 15.0525C29.6855 15.0521 29.6799 15.0516 29.6741 15.0512C29.6055 15.0471 29.5368 15.0417 29.4682 15.0341C29.4665 15.0339 29.4648 15.0338 29.4632 15.0336C29.3914 15.0256 29.3194 15.0158 29.2479 15.0039C29.245 15.0033 29.242 15.0028 29.239 15.0022C29.1711 14.9909 29.1034 14.9777 29.0359 14.9631C27.2114 14.5615 25.8417 12.933 25.8417 10.9896V2.78858H68.0432V5.11237C68.0432 5.88239 68.6674 6.50676 69.4376 6.50676C70.2078 6.50676 70.832 5.88239 70.832 5.11237V1.39438C70.832 0.624365 70.2078 0 69.4376 0H24.4471C23.6769 0 23.0527 0.624365 23.0527 1.39438V10.9896C23.0527 13.8578 24.8236 16.319 27.3286 17.3412V19.6409C27.3286 21.2149 28.6091 22.4951 30.1831 22.4951H37.3678V27.9803C36.0592 28.5278 35.137 29.8207 35.137 31.3259C35.137 32.9466 36.2063 34.3221 37.6766 34.7845L41.1289 46.2186C41.4642 47.3302 42.3878 48.1212 43.5031 48.2986V87.4026L38.9259 82.5203C38.9168 82.5107 38.9077 82.5012 38.8986 82.4919C37.7592 81.3436 36.1783 80.6851 34.5607 80.6851H6.11006C2.74108 80.6849 0 83.426 0 86.7951V93.6058C0 94.3756 0.62418 95 1.39438 95H93.6058C94.376 95 95.0002 94.3756 95.0002 93.6056V86.7951C95 83.426 92.2589 80.6849 88.8899 80.6849ZM30.1833 19.7064C30.1469 19.7064 30.1174 19.6771 30.1174 19.6407V17.8472H63.7671V19.6407C63.7671 19.6769 63.7378 19.7064 63.7012 19.7064H30.1833ZM54.8434 22.4951V27.7007H40.1564V22.4951H54.8434ZM37.9256 31.3259C37.9256 30.8646 38.301 30.4892 38.7622 30.4892H56.2378C56.699 30.4892 57.0744 30.8646 57.0744 31.3259C57.0744 31.7871 56.699 32.1625 56.2378 32.1625H38.7622C38.301 32.1625 37.9256 31.7871 37.9256 31.3259ZM40.6398 34.9511H54.3604L51.2018 45.4128C51.1774 45.4937 51.1042 45.5479 51.0198 45.5479H43.9807C43.8963 45.5479 43.823 45.4935 43.7987 45.4126L40.6398 34.9511ZM2.78858 92.2114V86.7951C2.78858 84.9638 4.27871 83.4736 6.11006 83.4736H34.5605C35.4335 83.4736 36.2874 83.8267 36.9056 84.4431L44.1885 92.2114H2.78858ZM48.7085 87.523C48.7085 87.7598 48.6522 87.9973 48.5465 88.2092L47.4518 90.3983L46.4346 88.2134C46.3409 88.0123 46.2912 87.7885 46.2912 87.5663V84.8209H46.2913L48.7081 85.9526V87.523H48.7085ZM48.7085 82.8732L46.2917 81.7416V76.8266L48.7085 77.9583V82.8732ZM48.7085 74.8791L46.2917 73.7475V68.8325L48.7085 69.9642V74.8791ZM48.7085 66.8848L46.2917 65.7532V60.8382L48.7085 61.9699V66.8848ZM48.7085 58.8907L46.2917 57.7591V52.8441L48.7085 53.9758V58.8907ZM48.7085 50.8966L46.2917 49.765V48.3366H48.7085V50.8966ZM50.4263 92.2114L56.9464 84.5569C57.5746 83.8683 58.468 83.4736 59.4004 83.4736H88.8898C90.7213 83.4736 92.2112 84.9638 92.2112 86.7951V92.2114H50.4263V92.2114Z" fill="#47268E"/>
<path d="M60.8937 66.4239C60.4009 66.1545 59.8183 66.1179 59.295 66.3232C58.7731 66.5284 58.3721 66.9511 58.1951 67.4823L55.6659 75.0704V75.0706C55.4386 75.7528 55.6132 76.4924 56.1218 77.0008C56.4829 77.3619 56.9606 77.5547 57.4514 77.5547C57.6518 77.5547 57.8544 77.5226 58.0522 77.4567L65.6398 74.9273C66.1717 74.75 66.5946 74.349 66.7995 73.8267C67.0047 73.3038 66.9677 72.721 66.6981 72.2288C65.3368 69.7391 63.3837 67.786 60.8937 66.4239ZM58.882 74.2405L60.4853 69.4309C61.7754 70.2876 62.8349 71.3468 63.6915 72.6373L58.882 74.2405Z" fill="#3172B0"/>
<path d="M36.619 67.4828C36.4418 66.951 36.041 66.5284 35.5189 66.3233C34.9958 66.1181 34.4132 66.1545 33.92 66.4241C31.43 67.7858 29.4771 69.7391 28.1157 72.2282C27.8458 72.721 27.8088 73.3036 28.014 73.8267C28.2191 74.349 28.6419 74.7501 29.1735 74.9273L36.7615 77.4567C36.9593 77.5226 37.1617 77.5547 37.3621 77.5547C37.853 77.5547 38.3306 77.3619 38.6917 77.0008C39.2001 76.4924 39.3749 75.7528 39.1476 75.0706V75.0704L36.619 67.4828ZM31.1227 72.6375C31.9792 71.3472 33.0388 70.2877 34.3289 69.4311L35.9323 74.2406L31.1227 72.6375Z" fill="#3172B0"/>
<circle cx="75" cy="72" r="19" fill="#EAF1F7"/>
<g clip-path="url(#clip1)">
<path d="M77.2502 69.3448H74.0686C73.9068 69.3448 73.7757 69.2202 73.7757 69.0665C73.7757 68.9127 73.9068 68.7881 74.0686 68.7881H77.2502C77.412 68.7881 77.5431 68.9127 77.5431 69.0665C77.5431 69.2202 77.412 69.3448 77.2502 69.3448Z" fill="#3172B0" stroke="#3172B0" stroke-width="0.5"/>
<path d="M80.4317 67.9162H74.0686C73.9068 67.9162 73.7757 67.7916 73.7757 67.6378C73.7757 67.4841 73.9068 67.3595 74.0686 67.3595H80.4317C80.5935 67.3595 80.7247 67.4841 80.7247 67.6378C80.7247 67.7916 80.5935 67.9162 80.4317 67.9162Z" fill="#3172B0" stroke="#3172B0" stroke-width="0.5"/>
<path d="M77.2502 74.0089H74.0686C73.9068 74.0089 73.7757 73.8844 73.7757 73.7306C73.7757 73.5769 73.9068 73.4523 74.0686 73.4523H77.2502C77.412 73.4523 77.5431 73.5769 77.5431 73.7306C77.5431 73.8844 77.412 74.0089 77.2502 74.0089Z" fill="#3172B0" stroke="#3172B0" stroke-width="0.5"/>
<path d="M80.4317 72.5803H74.0686C73.9068 72.5803 73.7757 72.4557 73.7757 72.302C73.7757 72.1483 73.9068 72.0237 74.0686 72.0237H80.4317C80.5935 72.0237 80.7247 72.1483 80.7247 72.302C80.7247 72.4557 80.5935 72.5803 80.4317 72.5803Z" fill="#3172B0" stroke="#3172B0" stroke-width="0.5"/>
<path d="M77.2502 78.6731H74.0686C73.9068 78.6731 73.7757 78.5485 73.7757 78.3948C73.7757 78.241 73.9068 78.1165 74.0686 78.1165H77.2502C77.412 78.1165 77.5431 78.241 77.5431 78.3948C77.5431 78.5485 77.412 78.6731 77.2502 78.6731Z" fill="#3172B0" stroke="#3172B0" stroke-width="0.5"/>
<path d="M80.4317 77.2445H74.0686C73.9068 77.2445 73.7757 77.1199 73.7757 76.9662C73.7757 76.8124 73.9068 76.6878 74.0686 76.6878H80.4317C80.5935 76.6878 80.7247 76.8124 80.7247 76.9662C80.7247 77.1199 80.5935 77.2445 80.4317 77.2445Z" fill="#3172B0" stroke="#3172B0" stroke-width="0.5"/>
<path d="M77.5333 65.6218H72.4667C71.9852 65.6218 71.5934 65.2496 71.5934 64.7922V63.8297C71.5934 63.3722 71.9852 63 72.4667 63H77.5332C78.0148 63 78.4066 63.3722 78.4066 63.8297V64.7922C78.4066 65.2496 78.0148 65.6218 77.5333 65.6218ZM72.4667 63.5566C72.3082 63.5566 72.1793 63.6791 72.1793 63.8297V64.7922C72.1793 64.9427 72.3082 65.0652 72.4667 65.0652H77.5332C77.6917 65.0652 77.8207 64.9427 77.8207 64.7922V63.8297C77.8207 63.6791 77.6917 63.5566 77.5332 63.5566H72.4667Z" fill="#3172B0" stroke="#3172B0" stroke-width="0.5"/>
<path d="M71.3639 69.7178H70.0619C69.6282 69.7178 69.2753 69.3826 69.2753 68.9706V67.7337C69.2753 67.3217 69.6282 66.9865 70.0619 66.9865H71.3639C71.7976 66.9865 72.1505 67.3217 72.1505 67.7337V68.9707C72.1505 69.3826 71.7976 69.7178 71.3639 69.7178ZM70.0619 67.5431C69.9512 67.5431 69.8612 67.6286 69.8612 67.7337V68.9707C69.8612 69.0757 69.9512 69.1612 70.0619 69.1612H71.3639C71.4746 69.1612 71.5646 69.0757 71.5646 68.9707V67.7337C71.5646 67.6286 71.4746 67.5431 71.3639 67.5431H70.0619Z" fill="#3172B0" stroke="#3172B0" stroke-width="0.5"/>
<path d="M71.3639 74.382H70.0619C69.6282 74.382 69.2753 74.0468 69.2753 73.6348V72.3978C69.2753 71.9858 69.6282 71.6506 70.0619 71.6506H71.3639C71.7976 71.6506 72.1505 71.9858 72.1505 72.3978V73.6348C72.1505 74.0468 71.7976 74.382 71.3639 74.382ZM70.0619 72.2072C69.9512 72.2072 69.8612 72.2927 69.8612 72.3978V73.6348C69.8612 73.7399 69.9512 73.8254 70.0619 73.8254H71.3639C71.4746 73.8254 71.5646 73.7399 71.5646 73.6348V72.3978C71.5646 72.2927 71.4746 72.2072 71.3639 72.2072H70.0619Z" fill="#3172B0" stroke="#3172B0" stroke-width="0.5"/>
<path d="M71.3639 79.0462H70.0619C69.6282 79.0462 69.2753 78.711 69.2753 78.2989V77.062C69.2753 76.6499 69.6282 76.3147 70.0619 76.3147H71.3639C71.7976 76.3147 72.1505 76.6499 72.1505 77.062V78.2989C72.1505 78.711 71.7976 79.0462 71.3639 79.0462ZM70.0619 76.8714C69.9512 76.8714 69.8612 76.9569 69.8612 77.062V78.2989C69.8612 78.404 69.9512 78.4896 70.0619 78.4896H71.3639C71.4746 78.4896 71.5646 78.404 71.5646 78.2989V77.062C71.5646 76.9569 71.4746 76.8714 71.3639 76.8714H70.0619Z" fill="#3172B0" stroke="#3172B0" stroke-width="0.5"/>
<path d="M81.2325 82H68.7675C68.0677 82 67.4984 81.4591 67.4984 80.7943V65.2383C67.4984 64.5735 68.0677 64.0326 68.7675 64.0326H70.5232C70.685 64.0326 70.8162 64.1572 70.8162 64.3109C70.8162 64.4647 70.685 64.5892 70.5232 64.5892H68.7675C68.3908 64.5892 68.0843 64.8804 68.0843 65.2383V80.7942C68.0843 81.1522 68.3908 81.4433 68.7675 81.4433H81.2325C81.6092 81.4433 81.9157 81.1521 81.9157 80.7942V65.2383C81.9157 64.8804 81.6092 64.5892 81.2325 64.5892H79.4768C79.315 64.5892 79.1838 64.4647 79.1838 64.3109C79.1838 64.1572 79.315 64.0326 79.4768 64.0326H81.2325C81.9323 64.0326 82.5016 64.5735 82.5016 65.2383V80.7942C82.5016 81.4591 81.9323 82 81.2325 82Z" fill="#3172B0" stroke="#3172B0" stroke-width="0.5"/>
</g>
</g>
<defs>
<clipPath id="clip0">
<rect width="95" height="95" fill="white"/>
</clipPath>
<clipPath id="clip1">
<rect width="20" height="20" fill="white" transform="translate(65 62)"/>
</clipPath>
</defs>
</svg>
